# xmcd
#
# Track frame offsets:
#  150
#  13158
#  23776
#  38616
#  51731
#  63778
#  72343
#  85688
#  100061
#  114843
#  127211
#  143941
#  153993
#  162591
#
# Disc length: 2380 seconds
#
# Revision: 0
# Processed by: cddbd v1.5.2PL0 Copyright (c) Steve Scherf et al.
# Submitted via: AltoMP3_Maker 3.0
#
DISCID=bc094a0e
DTITLE=The Four Lads - Idolos de Siempre
DYEAR=1900
DGENRE=
TTITLE0=Standing in the corner
TTITLE1=Istambul
TTITLE2=No, not much
TTITLE3=There's only one of you
TTITLE4=Tonight
TTITLE5=Somebody loves me
TTITLE6=Fly me to the moon
TTITLE7=Magnificent obsession
TTITLE8=Moments to remember
TTITLE9=Together wherever
TTITLE10=Time after time
TTITLE11=Breezin'along with the breeze
TTITLE12=Why can't you behave?
TTITLE13=Love is a many splendored thung
EXTD=
EXTT0=
EXTT1=
EXTT2=
EXTT3=
EXTT4=
EXTT5=
EXTT6=
EXTT7=
EXTT8=
EXTT9=
EXTT10=
EXTT11=
EXTT12=
EXTT13=
PLAYORDER=
